<svg xmlns="http://www.w3.org/2000/svg" width="420mm" height="297mm" viewBox="0 0 420 297">
<rect width="420" height="297" fill="#ffffff"/>
<g stroke="#183535" stroke-width="0.25"><line x1="2" y1="6" x2="10" y2="6"/><line x1="6" y1="2" x2="6" y2="10"/></g>
<g stroke="#183535" stroke-width="0.25"><line x1="410" y1="6" x2="418" y2="6"/><line x1="414" y1="2" x2="414" y2="10"/></g>
<g stroke="#183535" stroke-width="0.25"><line x1="410" y1="291" x2="418" y2="291"/><line x1="414" y1="287" x2="414" y2="295"/></g>
<g stroke="#183535" stroke-width="0.25"><line x1="2" y1="291" x2="10" y2="291"/><line x1="6" y1="287" x2="6" y2="295"/></g>
<text x="85" y="14" font-size="6" font-family="DejaVu Sans,sans-serif" fill="#183535" text-anchor="start" font-weight="bold">ZUDO / SCOPE 10 — G09 PANEL PRINT SHEET</text>
<text x="85" y="22" font-size="3.4" font-family="DejaVu Sans,sans-serif" fill="#be5f3c" text-anchor="start" font-weight="bold">PRINT AT 100% / DO NOT SCALE</text>
<text x="85" y="28" font-size="3.4" font-family="DejaVu Sans,sans-serif" fill="#be5f3c" text-anchor="start" font-weight="bold">REVIEW ONLY — NOT FABRICATION</text>
<text x="335" y="36" font-size="3" font-family="DejaVu Sans,sans-serif" fill="#617673" text-anchor="end">Generated by scripts/make_panel_print.py from mechanical/panel-layout-study.json</text>
<text x="335" y="42" font-size="3" font-family="DejaVu Sans,sans-serif" fill="#617673" text-anchor="end">Sheet: A3 landscape 420 x 297 mm. Panel outline: 250 x 180 mm at 1:1.</text>
<text x="335" y="48" font-size="3" font-family="DejaVu Sans,sans-serif" fill="#617673" text-anchor="end">Nominal ergonomic envelopes only — not exact parts, not a drill drawing.</text>
<rect id="panel-outline" x="85" y="58.5" width="250" height="180" fill="none" stroke="#183535" stroke-width="0.4" stroke-dasharray="2,1"/>
<text x="85" y="56.5" font-size="3" font-family="DejaVu Sans,sans-serif" fill="#183535" text-anchor="start">PANEL OUTLINE 250 x 180 mm (nominal envelope, not exact fit)</text>
<rect id="module-envelope" x="181.4" y="105.5" width="57.2" height="86" fill="none" stroke="#617673" stroke-width="0.3" stroke-dasharray="1,1"/>
<text x="181.4" y="104.3" font-size="2.4" font-family="DejaVu Sans,sans-serif" fill="#617673" text-anchor="start">LCD MODULE ENVELOPE 57.2 x 86 mm</text>
<rect id="active-area" x="185.52" y="111.78" width="48.96" height="73.44" fill="none" stroke="#183535" stroke-width="0.35"/>
<text x="210" y="148.5" font-size="2.4" font-family="DejaVu Sans,sans-serif" fill="#183535" text-anchor="middle">ACTIVE AREA 48.96 x 73.44 mm</text>
<text x="210" y="151.7" font-size="2" font-family="DejaVu Sans,sans-serif" fill="#be5f3c" text-anchor="middle">centring: UNVERIFIED_VISUAL_STUDY</text>
<g id="channel-1"><circle cx="133" cy="101.5" r="8" fill="none" stroke="#183535" stroke-width="0.3"/><circle cx="133" cy="101.5" r="6.8" fill="none" stroke="#748582" stroke-width="0.2"/><text x="133" y="112.9" font-size="2.4" font-family="DejaVu Sans,sans-serif" fill="#183535" text-anchor="middle">CH01 TIME</text><rect x="155" y="98.5" width="14" height="6" rx="1" fill="none" stroke="#617673" stroke-width="0.25"/><text x="162" y="97.3" font-size="2" font-family="DejaVu Sans,sans-serif" fill="#617673" text-anchor="middle">RANGE</text><rect x="86.5" y="98.5" width="14" height="6" rx="1" fill="none" stroke="#617673" stroke-width="0.25"/><text x="93.5" y="97.3" font-size="2" font-family="DejaVu Sans,sans-serif" fill="#617673" text-anchor="middle">JACK</text></g>
<g id="channel-2"><circle cx="133" cy="125" r="8" fill="none" stroke="#183535" stroke-width="0.3"/><circle cx="133" cy="125" r="6.8" fill="none" stroke="#748582" stroke-width="0.2"/><text x="133" y="136.4" font-size="2.4" font-family="DejaVu Sans,sans-serif" fill="#183535" text-anchor="middle">CH02 TIME</text><rect x="155" y="122" width="14" height="6" rx="1" fill="none" stroke="#617673" stroke-width="0.25"/><text x="162" y="120.8" font-size="2" font-family="DejaVu Sans,sans-serif" fill="#617673" text-anchor="middle">RANGE</text><rect x="86.5" y="122" width="14" height="6" rx="1" fill="none" stroke="#617673" stroke-width="0.25"/><text x="93.5" y="120.8" font-size="2" font-family="DejaVu Sans,sans-serif" fill="#617673" text-anchor="middle">JACK</text></g>
<g id="channel-3"><circle cx="133" cy="148.5" r="8" fill="none" stroke="#183535" stroke-width="0.3"/><circle cx="133" cy="148.5" r="6.8" fill="none" stroke="#748582" stroke-width="0.2"/><text x="133" y="159.9" font-size="2.4" font-family="DejaVu Sans,sans-serif" fill="#183535" text-anchor="middle">CH03 TIME</text><rect x="155" y="145.5" width="14" height="6" rx="1" fill="none" stroke="#617673" stroke-width="0.25"/><text x="162" y="144.3" font-size="2" font-family="DejaVu Sans,sans-serif" fill="#617673" text-anchor="middle">RANGE</text><rect x="86.5" y="145.5" width="14" height="6" rx="1" fill="none" stroke="#617673" stroke-width="0.25"/><text x="93.5" y="144.3" font-size="2" font-family="DejaVu Sans,sans-serif" fill="#617673" text-anchor="middle">JACK</text></g>
<g id="channel-4"><circle cx="133" cy="172" r="8" fill="none" stroke="#183535" stroke-width="0.3"/><circle cx="133" cy="172" r="6.8" fill="none" stroke="#748582" stroke-width="0.2"/><text x="133" y="183.4" font-size="2.4" font-family="DejaVu Sans,sans-serif" fill="#183535" text-anchor="middle">CH04 TIME</text><rect x="155" y="169" width="14" height="6" rx="1" fill="none" stroke="#617673" stroke-width="0.25"/><text x="162" y="167.8" font-size="2" font-family="DejaVu Sans,sans-serif" fill="#617673" text-anchor="middle">RANGE</text><rect x="86.5" y="169" width="14" height="6" rx="1" fill="none" stroke="#617673" stroke-width="0.25"/><text x="93.5" y="167.8" font-size="2" font-family="DejaVu Sans,sans-serif" fill="#617673" text-anchor="middle">JACK</text></g>
<g id="channel-5"><circle cx="133" cy="195.5" r="8" fill="none" stroke="#183535" stroke-width="0.3"/><circle cx="133" cy="195.5" r="6.8" fill="none" stroke="#748582" stroke-width="0.2"/><text x="133" y="206.9" font-size="2.4" font-family="DejaVu Sans,sans-serif" fill="#183535" text-anchor="middle">CH05 TIME</text><rect x="155" y="192.5" width="14" height="6" rx="1" fill="none" stroke="#617673" stroke-width="0.25"/><text x="162" y="191.3" font-size="2" font-family="DejaVu Sans,sans-serif" fill="#617673" text-anchor="middle">RANGE</text><rect x="86.5" y="192.5" width="14" height="6" rx="1" fill="none" stroke="#617673" stroke-width="0.25"/><text x="93.5" y="191.3" font-size="2" font-family="DejaVu Sans,sans-serif" fill="#617673" text-anchor="middle">JACK</text></g>
<g id="channel-6"><circle cx="287" cy="101.5" r="8" fill="none" stroke="#183535" stroke-width="0.3"/><circle cx="287" cy="101.5" r="6.8" fill="none" stroke="#748582" stroke-width="0.2"/><text x="287" y="112.9" font-size="2.4" font-family="DejaVu Sans,sans-serif" fill="#183535" text-anchor="middle">CH06 TIME</text><rect x="251" y="98.5" width="14" height="6" rx="1" fill="none" stroke="#617673" stroke-width="0.25"/><text x="258" y="97.3" font-size="2" font-family="DejaVu Sans,sans-serif" fill="#617673" text-anchor="middle">RANGE</text><rect x="319.5" y="98.5" width="14" height="6" rx="1" fill="none" stroke="#617673" stroke-width="0.25"/><text x="326.5" y="97.3" font-size="2" font-family="DejaVu Sans,sans-serif" fill="#617673" text-anchor="middle">JACK</text></g>
<g id="channel-7"><circle cx="287" cy="125" r="8" fill="none" stroke="#183535" stroke-width="0.3"/><circle cx="287" cy="125" r="6.8" fill="none" stroke="#748582" stroke-width="0.2"/><text x="287" y="136.4" font-size="2.4" font-family="DejaVu Sans,sans-serif" fill="#183535" text-anchor="middle">CH07 TIME</text><rect x="251" y="122" width="14" height="6" rx="1" fill="none" stroke="#617673" stroke-width="0.25"/><text x="258" y="120.8" font-size="2" font-family="DejaVu Sans,sans-serif" fill="#617673" text-anchor="middle">RANGE</text><rect x="319.5" y="122" width="14" height="6" rx="1" fill="none" stroke="#617673" stroke-width="0.25"/><text x="326.5" y="120.8" font-size="2" font-family="DejaVu Sans,sans-serif" fill="#617673" text-anchor="middle">JACK</text></g>
<g id="channel-8"><circle cx="287" cy="148.5" r="8" fill="none" stroke="#183535" stroke-width="0.3"/><circle cx="287" cy="148.5" r="6.8" fill="none" stroke="#748582" stroke-width="0.2"/><text x="287" y="159.9" font-size="2.4" font-family="DejaVu Sans,sans-serif" fill="#183535" text-anchor="middle">CH08 TIME</text><rect x="251" y="145.5" width="14" height="6" rx="1" fill="none" stroke="#617673" stroke-width="0.25"/><text x="258" y="144.3" font-size="2" font-family="DejaVu Sans,sans-serif" fill="#617673" text-anchor="middle">RANGE</text><rect x="319.5" y="145.5" width="14" height="6" rx="1" fill="none" stroke="#617673" stroke-width="0.25"/><text x="326.5" y="144.3" font-size="2" font-family="DejaVu Sans,sans-serif" fill="#617673" text-anchor="middle">JACK</text></g>
<g id="channel-9"><circle cx="287" cy="172" r="8" fill="none" stroke="#183535" stroke-width="0.3"/><circle cx="287" cy="172" r="6.8" fill="none" stroke="#748582" stroke-width="0.2"/><text x="287" y="183.4" font-size="2.4" font-family="DejaVu Sans,sans-serif" fill="#183535" text-anchor="middle">CH09 TIME</text><rect x="251" y="169" width="14" height="6" rx="1" fill="none" stroke="#617673" stroke-width="0.25"/><text x="258" y="167.8" font-size="2" font-family="DejaVu Sans,sans-serif" fill="#617673" text-anchor="middle">RANGE</text><rect x="319.5" y="169" width="14" height="6" rx="1" fill="none" stroke="#617673" stroke-width="0.25"/><text x="326.5" y="167.8" font-size="2" font-family="DejaVu Sans,sans-serif" fill="#617673" text-anchor="middle">JACK</text></g>
<g id="channel-10"><circle cx="287" cy="195.5" r="8" fill="none" stroke="#183535" stroke-width="0.3"/><circle cx="287" cy="195.5" r="6.8" fill="none" stroke="#748582" stroke-width="0.2"/><text x="287" y="206.9" font-size="2.4" font-family="DejaVu Sans,sans-serif" fill="#183535" text-anchor="middle">CH10 TIME</text><rect x="251" y="192.5" width="14" height="6" rx="1" fill="none" stroke="#617673" stroke-width="0.25"/><text x="258" y="191.3" font-size="2" font-family="DejaVu Sans,sans-serif" fill="#617673" text-anchor="middle">RANGE</text><rect x="319.5" y="192.5" width="14" height="6" rx="1" fill="none" stroke="#617673" stroke-width="0.25"/><text x="326.5" y="191.3" font-size="2" font-family="DejaVu Sans,sans-serif" fill="#617673" text-anchor="middle">JACK</text></g>
<circle cx="199" cy="205.5" r="3" fill="none" stroke="#be5f3c" stroke-width="0.3"/>
<text x="199" y="212" font-size="2.4" font-family="DejaVu Sans,sans-serif" fill="#183535" text-anchor="middle">HOLD</text>
<circle cx="223" cy="205.5" r="3" fill="none" stroke="#be5f3c" stroke-width="0.3"/>
<text x="223" y="212" font-size="2.4" font-family="DejaVu Sans,sans-serif" fill="#183535" text-anchor="middle">LINK</text>
<g id="ruler-100-mm">
<line x1="85" y1="260.5" x2="185" y2="260.5" stroke="#183535" stroke-width="0.3"/>
<line x1="85" y1="260.5" x2="85" y2="256.5" stroke="#183535" stroke-width="0.3"/>
<text x="85" y="255.3" font-size="2.2" font-family="DejaVu Sans,sans-serif" fill="#183535" text-anchor="middle">0</text>
<line x1="90" y1="260.5" x2="90" y2="258.5" stroke="#183535" stroke-width="0.15"/>
<line x1="95" y1="260.5" x2="95" y2="256.5" stroke="#183535" stroke-width="0.3"/>
<text x="95" y="255.3" font-size="2.2" font-family="DejaVu Sans,sans-serif" fill="#183535" text-anchor="middle">10</text>
<line x1="100" y1="260.5" x2="100" y2="258.5" stroke="#183535" stroke-width="0.15"/>
<line x1="105" y1="260.5" x2="105" y2="256.5" stroke="#183535" stroke-width="0.3"/>
<text x="105" y="255.3" font-size="2.2" font-family="DejaVu Sans,sans-serif" fill="#183535" text-anchor="middle">20</text>
<line x1="110" y1="260.5" x2="110" y2="258.5" stroke="#183535" stroke-width="0.15"/>
<line x1="115" y1="260.5" x2="115" y2="256.5" stroke="#183535" stroke-width="0.3"/>
<text x="115" y="255.3" font-size="2.2" font-family="DejaVu Sans,sans-serif" fill="#183535" text-anchor="middle">30</text>
<line x1="120" y1="260.5" x2="120" y2="258.5" stroke="#183535" stroke-width="0.15"/>
<line x1="125" y1="260.5" x2="125" y2="256.5" stroke="#183535" stroke-width="0.3"/>
<text x="125" y="255.3" font-size="2.2" font-family="DejaVu Sans,sans-serif" fill="#183535" text-anchor="middle">40</text>
<line x1="130" y1="260.5" x2="130" y2="258.5" stroke="#183535" stroke-width="0.15"/>
<line x1="135" y1="260.5" x2="135" y2="256.5" stroke="#183535" stroke-width="0.3"/>
<text x="135" y="255.3" font-size="2.2" font-family="DejaVu Sans,sans-serif" fill="#183535" text-anchor="middle">50</text>
<line x1="140" y1="260.5" x2="140" y2="258.5" stroke="#183535" stroke-width="0.15"/>
<line x1="145" y1="260.5" x2="145" y2="256.5" stroke="#183535" stroke-width="0.3"/>
<text x="145" y="255.3" font-size="2.2" font-family="DejaVu Sans,sans-serif" fill="#183535" text-anchor="middle">60</text>
<line x1="150" y1="260.5" x2="150" y2="258.5" stroke="#183535" stroke-width="0.15"/>
<line x1="155" y1="260.5" x2="155" y2="256.5" stroke="#183535" stroke-width="0.3"/>
<text x="155" y="255.3" font-size="2.2" font-family="DejaVu Sans,sans-serif" fill="#183535" text-anchor="middle">70</text>
<line x1="160" y1="260.5" x2="160" y2="258.5" stroke="#183535" stroke-width="0.15"/>
<line x1="165" y1="260.5" x2="165" y2="256.5" stroke="#183535" stroke-width="0.3"/>
<text x="165" y="255.3" font-size="2.2" font-family="DejaVu Sans,sans-serif" fill="#183535" text-anchor="middle">80</text>
<line x1="170" y1="260.5" x2="170" y2="258.5" stroke="#183535" stroke-width="0.15"/>
<line x1="175" y1="260.5" x2="175" y2="256.5" stroke="#183535" stroke-width="0.3"/>
<text x="175" y="255.3" font-size="2.2" font-family="DejaVu Sans,sans-serif" fill="#183535" text-anchor="middle">90</text>
<line x1="180" y1="260.5" x2="180" y2="258.5" stroke="#183535" stroke-width="0.15"/>
<line x1="185" y1="260.5" x2="185" y2="256.5" stroke="#183535" stroke-width="0.3"/>
<text x="185" y="255.3" font-size="2.2" font-family="DejaVu Sans,sans-serif" fill="#183535" text-anchor="middle">100</text>
<text x="85" y="267" font-size="3" font-family="DejaVu Sans,sans-serif" fill="#183535" text-anchor="start">100 mm SCALE CHECK — must measure exactly 100 mm</text>
</g>
<g id="ruler-50-mm">
<line x1="215" y1="260.5" x2="265" y2="260.5" stroke="#183535" stroke-width="0.3"/>
<line x1="215" y1="260.5" x2="215" y2="256.5" stroke="#183535" stroke-width="0.3"/>
<text x="215" y="255.3" font-size="2.2" font-family="DejaVu Sans,sans-serif" fill="#183535" text-anchor="middle">0</text>
<line x1="220" y1="260.5" x2="220" y2="258.5" stroke="#183535" stroke-width="0.15"/>
<line x1="225" y1="260.5" x2="225" y2="256.5" stroke="#183535" stroke-width="0.3"/>
<text x="225" y="255.3" font-size="2.2" font-family="DejaVu Sans,sans-serif" fill="#183535" text-anchor="middle">10</text>
<line x1="230" y1="260.5" x2="230" y2="258.5" stroke="#183535" stroke-width="0.15"/>
<line x1="235" y1="260.5" x2="235" y2="256.5" stroke="#183535" stroke-width="0.3"/>
<text x="235" y="255.3" font-size="2.2" font-family="DejaVu Sans,sans-serif" fill="#183535" text-anchor="middle">20</text>
<line x1="240" y1="260.5" x2="240" y2="258.5" stroke="#183535" stroke-width="0.15"/>
<line x1="245" y1="260.5" x2="245" y2="256.5" stroke="#183535" stroke-width="0.3"/>
<text x="245" y="255.3" font-size="2.2" font-family="DejaVu Sans,sans-serif" fill="#183535" text-anchor="middle">30</text>
<line x1="250" y1="260.5" x2="250" y2="258.5" stroke="#183535" stroke-width="0.15"/>
<line x1="255" y1="260.5" x2="255" y2="256.5" stroke="#183535" stroke-width="0.3"/>
<text x="255" y="255.3" font-size="2.2" font-family="DejaVu Sans,sans-serif" fill="#183535" text-anchor="middle">40</text>
<line x1="260" y1="260.5" x2="260" y2="258.5" stroke="#183535" stroke-width="0.15"/>
<line x1="265" y1="260.5" x2="265" y2="256.5" stroke="#183535" stroke-width="0.3"/>
<text x="265" y="255.3" font-size="2.2" font-family="DejaVu Sans,sans-serif" fill="#183535" text-anchor="middle">50</text>
<text x="215" y="267" font-size="3" font-family="DejaVu Sans,sans-serif" fill="#183535" text-anchor="start">50 mm SCALE CHECK — must measure exactly 50 mm</text>
</g>
<rect id="credit-card-reference" x="295" y="241.5" width="85.6" height="53.98" rx="3" fill="none" stroke="#183535" stroke-width="0.35"/>
<text x="337.8" y="268.49" font-size="2.6" font-family="DejaVu Sans,sans-serif" fill="#183535" text-anchor="middle">ISO/IEC 7810 ID-1 CARD</text>
<text x="337.8" y="272.49" font-size="2.6" font-family="DejaVu Sans,sans-serif" fill="#183535" text-anchor="middle">85.6 x 53.98 mm — lay a real card here</text>
</svg>
